<?xml version="1.0" encoding="UTF-8" standalone="no"?>
<!-- Created with Inkscape (http://www.inkscape.org/) -->

<svg
   xmlns:dc="http://purl.org/dc/elements/1.1/"
   xmlns:cc="http://creativecommons.org/ns#"
   xmlns:rdf="http://www.w3.org/1999/02/22-rdf-syntax-ns#"
   xmlns:svg="http://www.w3.org/2000/svg"
   xmlns="http://www.w3.org/2000/svg"
   xmlns:sodipodi="http://sodipodi.sourceforge.net/DTD/sodipodi-0.dtd"
   xmlns:inkscape="http://www.inkscape.org/namespaces/inkscape"
   width="261.27032"
   height="200.05647"
   id="svg3068"
   version="1.1"
   inkscape:version="0.48.4 r9939"
   sodipodi:docname="New document 2">
  <defs
     id="defs3070" />
  <sodipodi:namedview
     id="base"
     pagecolor="#ffffff"
     bordercolor="#666666"
     borderopacity="1.0"
     inkscape:pageopacity="0.0"
     inkscape:pageshadow="2"
     inkscape:zoom="0.6"
     inkscape:cx="228.55277"
     inkscape:cy="-18.111121"
     inkscape:current-layer="g3202"
     inkscape:document-units="px"
     showgrid="false"
     fit-margin-top="0"
     fit-margin-left="0"
     fit-margin-right="0"
     fit-margin-bottom="0"
     inkscape:window-width="1589"
     inkscape:window-height="840"
     inkscape:window-x="0"
     inkscape:window-y="27"
     inkscape:window-maximized="1" />
  <metadata
     id="metadata3073">
    <rdf:RDF>
      <cc:Work
         rdf:about="">
        <dc:format>image/svg+xml</dc:format>
        <dc:type
           rdf:resource="http://purl.org/dc/dcmitype/StillImage" />
        <dc:title></dc:title>
      </cc:Work>
    </rdf:RDF>
  </metadata>
  <g
     id="layer1"
     inkscape:label="Layer 1"
     inkscape:groupmode="layer"
     transform="translate(-171.44723,-81.832411)">
    <g
       id="layer1-9"
       inkscape:label="Layer 1"
       transform="translate(-84.990242,-303.90617)">
      <g
         transform="matrix(0.04677518,0,0,0.04677518,74.782243,165.8163)"
         id="Camada_x0020_1" />
      <g
         transform="matrix(12.962387,0,0,12.962387,-813.21035,-1951.7577)"
         id="g3202">
        <g
           id="g3135"
           transform="matrix(0.42211592,0,0,0.42211592,54.356309,112.71146)">
          <path
             style="fill:#ccccff;stroke:#000000;stroke-width:0.34769946"
             inkscape:connector-curvature="0"
             d="m 67.028246,181.80291 -0.117554,2.20692 11.280831,0.32892 6.961126,0.19503 7.913658,0.0396 0.146894,0.20675 0.265294,0.16133 0.132582,0.25619 0.02849,0.31317 0.06629,0.15184 0.473729,-0.019 0.14208,0.11391 0.189505,-0.038 0.03786,0.23726 0.09472,0.0759 0.151577,-0.009 -0.01893,0.12334 -0.113651,0.019 -0.06636,0.11391 0.0095,0.0664 0.236864,0.038 0.04742,0.26575 0.08529,-0.009 -0.02849,0.18983 -0.104218,0.009 0.04742,0.15184 0.07579,0.038 -0.05686,0.10435 0.04736,0.12335 -0.01893,0.31317 -0.104218,0.14234 0.322087,0.38903 -0.0095,0.18983 0.09472,0.019 0.01893,0.18027 0.123213,0.019 -0.019,0.18026 h 0.39794 l 0.01893,0.0949 0.123149,0.0474 0.0095,0.14234 0.246297,-0.019 0.08529,0.10434 0.227366,-0.019 0.0095,0.0664 0.236865,0.01 h 0.123149 l 0.05686,0.19926 0.236864,0.34167 3.192635,1.88854 1.6105,0.91109 0.0379,0.14234 -0.0663,0.11385 0.01,0.18033 -0.0758,0.0664 -0.0474,0.15184 -0.0379,0.20883 -0.12315,0.36059 -0.26529,0.52194 -0.13265,0.41759 -0.0568,0.22775 -0.0947,0.27518 -0.24636,0.057 -0.13265,0.0949 -0.49253,0.0285 -0.0474,0.38909 -0.0663,0.27519 -0.151583,0.11384 -0.06636,0.20876 -0.01893,0.22783 0.217943,0.0379 0.0568,-0.18026 0.21787,-0.12335 0.31266,-0.20882 0.36951,-0.31311 0.0474,-0.17084 -0.13264,-0.23725 0.009,-0.0948 0.0569,-0.0759 0.14208,-0.19926 0.15158,0.0189 -0.0664,0.18033 -0.0474,0.24675 0.0853,0.20876 0.10422,0.21826 0.11371,0.0664 0.44524,-0.0569 -0.13258,0.17083 0.23686,-0.0285 0.2463,-0.18983 0.20844,-0.0569 0.15151,-0.0569 h 0.22737 0.14214 l 0.27479,0.01 0.83856,-9.1e-4 1.26876,-0.45863 0.18339,0.0459 0.10702,0.13753 1.03951,-0.33627 0.6726,-0.24461 0.55036,-0.33633 0.61139,-0.24454 0.62674,-0.2599 0.70317,-0.30569 1.16175,-0.48921 0.82548,-0.45857 0.88657,-0.428 0.58094,-0.32104 0.53501,-0.22932 0.30576,-0.1681 0.0458,-0.1376 -0.29041,-0.15287 -0.27511,0.10701 -0.0917,0.21403 -0.25989,0.13759 -0.21397,0.0458 -0.0306,0.13759 -0.1681,0.0459 -0.10708,0.1223 -0.19875,-0.19874 -0.0611,-0.24461 -0.1223,-0.0764 -0.16817,0.21397 -0.13753,-0.0306 -0.29047,-0.0152 -0.13752,-0.30576 -0.27512,-0.10702 -0.0153,-0.25989 0.0917,-0.0764 0.0459,0.18346 0.0917,-0.0153 0.18338,-0.15288 0.12231,-0.16817 -0.22926,-0.0153 -0.19874,0.0917 -0.13752,0.0917 h -0.15295 l -0.18339,0.2446 -0.21396,0.19875 -0.16823,0.0152 -0.13753,0.19874 -0.22925,0.19874 -0.21403,0.0917 -0.18339,0.24461 -0.29047,0.0306 -0.64203,0.0459 -0.15288,0.13759 -0.47386,0.0152 -0.18339,0.0917 -0.85605,-0.0153 -0.0764,0.0765 -0.18339,-0.0612 -0.16817,-0.0917 -0.0917,0.0764 -0.1681,-0.0152 -0.0611,0.25983 -0.19874,0.19874 -0.29047,0.10708 -0.24454,-0.0917 -0.3822,-0.0611 -0.25983,-0.0458 -0.16817,-0.19881 -0.0306,0.18345 -0.0306,0.10702 -0.1681,-0.10702 -0.21403,-0.0153 -0.0917,-0.0764 -0.0611,0.21403 -0.15288,0.0764 -0.2446,0.0153 -0.16817,-0.0306 -0.0791,0.11378 -0.14897,0.0426 -0.11352,0.0638 -0.0426,0.14188 -0.078,0.1348 -0.12061,-0.0426 -0.0993,-0.0567 -0.0993,-0.0568 -0.0425,0.14195 -0.0143,0.0993 -0.0922,0.0852 -0.0781,0.0993 -0.0284,0.10643 -0.007,0.11346 -0.15601,-0.0567 -0.0567,-0.11352 -0.0993,-0.078 0.0284,-0.156 0.1277,-0.0213 0.0284,0.078 0.10643,-0.0993 -0.0425,-0.0922 -0.078,-0.071 0.0284,-0.0993 0.11345,-0.14189 0.0922,-0.12763 0.51081,-0.44693 0.0355,-0.0993 -0.0284,-0.31213 -0.15607,-0.17734 -0.11346,-0.22704 -0.14188,-0.19146 1.38326,-0.89378 0.007,-0.10643 -0.0922,-0.20571 -0.1277,-0.11352 -0.17734,-0.26243 -0.0213,-0.29795 0.0425,-0.0637 0.0142,-0.49657 0.0567,-2.36227 0.0993,-2.81616 -0.0851,-0.0993 0.007,-0.36183 0.11352,-0.10643 0.63129,-2.85162 0.51784,-2.13516 -0.11346,-0.15607 v -0.21279 l -0.0497,-0.0213 0.007,-0.0993 0.0638,-0.0638 0.0355,-5.71038 -0.0709,-0.22698 -0.14189,-0.13479 -0.0851,-0.0142 -0.0355,-0.30498 -0.0426,-0.0993 -0.11346,-0.007 -0.11352,0.0142 -0.12763,0.0354 -0.0568,0.12771 -0.0497,0.16315 -0.0496,0.12764 -0.12771,-0.0496 -0.0709,-0.1277 0.007,-0.29795 0.0425,-0.24122 0.12771,-0.36177 0.13473,-0.26243 0.11352,-0.19152 -0.0567,-0.19153 -0.14898,-0.14188 -0.071,-0.14898 0.12061,-0.16315 0.007,-0.36177 -0.18443,-0.16316 -0.0426,-0.21989 -0.0567,-0.78033 -0.1348,-0.10636 0.071,-0.32632 0.0213,-0.40431 0.14189,-0.22698 -0.007,-0.19861 0.37596,-0.46111 0.0851,-0.13473 -0.0425,-0.0852 -0.0142,-0.16315 h -0.0638 l 0.007,-0.42559 -0.078,-0.0213 0.007,-0.16315 0.14189,-0.16316 0.0497,-0.17734 0.007,-0.39722 -0.0993,-0.39723 -0.21279,-0.27668 -0.28371,-0.43977 0.0568,-0.30504 0.11345,-0.23407 -0.0354,-0.22697 -0.0213,-0.29795 0.12062,-0.19153 0.10642,-0.2057 -0.0355,-0.18443 -0.10642,-0.0638 -0.17019,-0.18443 0.0496,-0.12764 0.0355,-0.19152 0.0284,-0.16316 0.0993,-0.11352 0.007,-0.17734 0.007,-0.21988 -0.0568,-0.0567 -0.0638,-0.1277 0.10637,-0.0852 -0.0142,-0.0567 -3.8731,0.2128 -3.880266,0.0213 -0.127702,0.0709 -0.198612,-0.0852 -0.177405,-0.0354 -0.163157,-0.0852 -0.078,0.0568 -0.113521,0.0213 -0.113456,0.0284 -0.07097,0.0709 -0.078,0.0852 -0.02127,0.078 -0.241158,-0.0142 -0.163222,-0.0284 -0.09218,0.0993 -0.05673,0.12061 -0.18443,0.15607 -0.177405,0.0496 -0.269587,0.071 -0.156002,0.14188 -0.226976,0.14189 -0.226976,0.0993 -0.170248,0.11352 -0.198678,0.13479 -0.134728,0.15601 -0.212795,0.17024 -0.219885,0.19153 -0.4682,0.43977 -0.212794,0.19861 -0.475291,0.51784 -0.539044,0.51074 -0.269652,0.28377 -0.439771,0.53911 -0.01418,0.22698 -0.09218,0.14897 -0.227042,0.16316 -0.510745,0.45402 -0.163158,-0.0568 -0.11352,0.0496 -0.219886,0.11352 -0.191521,0.13479 -0.177339,0.10637 H 88.50535 l -0.05679,0.10643 -0.06382,0.0567 0.0071,0.30504 -0.106364,0.11352 -0.148975,0.0852 -0.148976,0.0709 -0.304977,0.0213 h -0.141885 l -0.106429,0.19861 -0.09218,0.24122 -0.09934,0.12062 -0.03545,0.17734 0.04964,0.32631 0.312133,0.0922 0.02836,0.1348 0.0071,0.16315 0.09927,0.0852 0.08509,0.13479 -0.01418,0.078 0.390133,0.0568 0.127703,0.0851 0.234067,0.0284 0.0071,0.12764 0.02127,0.14897 0.06382,0.0496 -0.03545,0.14188 -0.09927,0.11352 -0.163157,0.0284 -0.0929,0.085 -0.156067,0.0709 -0.08509,-0.0852 -0.156066,0.0143 -0.120612,0.0426 -0.07091,0.11352 0.07091,0.11352 0.191522,0.156 0.09218,0.23413 0.08516,0.26959 0.03545,0.22697 0.0071,0.39723 0.078,0.0425 -0.06382,0.82282 -0.148976,0.26249 -0.248249,0.14189 -0.234132,0.0922 -0.205704,-0.0425 -0.141884,-0.0922 h -0.262431 l -0.163158,0.12771 -0.361769,0.29795 -0.305043,0.17024 -0.340496,0.2128 -0.205704,0.21279 -0.127703,0.24116 -0.198612,0.17734 -0.156066,0.007 -0.35468,0.23413 -0.333405,0.0213 -0.134794,0.13479 -0.262496,0.0213 -0.184431,0.14189 -0.375952,-0.0142 -0.276613,-0.007 -0.127637,-0.0852 -0.156067,-0.0567 -0.205703,-0.007 -0.08516,0.0993 -1.475509,-0.0142 -0.06382,0.0781 -0.205703,-0.007 -0.141885,0.078 -0.11352,0.0568 -0.141885,0.10643 -0.148976,0.0213 -0.241158,-0.17734 -0.872515,-0.68809 -0.47529,-0.0354 -0.148976,-0.0568 -0.198612,-0.0638 -0.241224,-0.0638 -0.170248,-0.0568 h -0.205703 l -0.297952,-0.0496 -0.553291,-0.0284 -0.65263,0.0354 -0.297951,-0.0638 -0.297951,0.007 -0.078,-0.071 -0.219885,0.0284 -0.177339,0.0709 -0.170249,-0.007 -0.11352,-0.0993 -0.141885,0.0284 -0.04964,0.0852 -0.624266,-0.007 c 0,0 -0.922152,0.21988 -0.964763,0.24122 -0.04261,0.0213 -0.503654,0.11352 -0.503654,0.11352 l -1.071128,0.35468 -0.09218,-0.0355 -0.02127,0.11352 0.106365,0.0568 v 0.6739 l 0.07097,0.0496 -0.0071,0.14188 -0.141885,0.0993 v 0.24123 l -0.08516,0.0284 0.02127,0.0851 0.163157,0.0781 0.170314,0.0284 0.01418,0.28377 -0.08516,0.0709 0.01418,0.25534 0.375952,0.31213 0.198612,0.007 0.05673,0.17734 v 0.36177 l 0.106429,0.0213 0.02836,0.14189 0.07091,0.078 0.04964,0.0638 0.07091,0.0709 -0.04964,0.0851 -0.04255,0.12771 0.02127,0.11352 0.07807,0.007 -0.02127,0.1277 -0.06382,0.0355 -0.716449,0.51074 -0.191521,0.0426 -0.148976,0.0354 -0.09934,0.0922 -0.04964,0.15601 -0.02127,0.18449 -0.184431,0.0992 -0.170248,0.21995 -0.113521,0.17734 v 0.10643 l -0.219885,0.11352 -0.347588,0.10643 -0.375952,0.2057 -0.25534,0.16316 -0.163157,-0.0142 -0.297951,0.29788 -0.24825,0.28377 -1.02149,0.61002 -0.439836,0.21995 -0.205704,0.12764 -0.188528,0.0353 0,0 z"
             id="path16104" />
          <polygon
             transform="matrix(0.06505482,0,0,0.06505482,65.730532,159.51838)"
             style="fill:#ccccff;stroke:#000000;stroke-width:1.80495214"
             points="725.054,490.964 723.857,492.557 723.194,490.434 721.604,489.373 719.878,489.373 719.745,487.514 721.205,485.79 723.728,486.717 725.054,488.576 "
             id="polygon16106" />
          <polygon
             transform="matrix(0.06505482,0,0,0.06505482,65.730532,159.51838)"
             style="fill:#ccccff;stroke:#000000;stroke-width:1.80495214"
             points="732.75,468.275 735.271,467.079 737.924,465.355 737.924,464.292 735.537,463.762 733.811,464.559 731.688,465.222 730.627,466.151 729.167,466.415 728.371,467.611 729.034,468.672 "
             id="polygon16108" />
          <polyline
             transform="matrix(0.06505482,0,0,0.06505482,65.730532,159.51838)"
             style="fill:none;stroke:#000000;stroke-width:0.35280001"
             points="78.204,309.507 81.872,309.507 82.789,312.259    84.316,312.868 89.512,313.175 93.791,321.426 98.681,325.4 105.71,325.094 110.294,323.26 115.49,320.511 117.324,322.647    121.603,318.982 125.881,318.677 128.326,317.148 131.994,317.455 138.106,315.009 138.106,317.455 194.952,318.982    195.869,324.788 205.343,324.788 205.343,317.758 211.455,317.148 211.455,312.565 227.348,311.953 227.653,301.562    217.568,301.562 216.957,290.253 219.401,288.726 219.096,277.417 222.458,277.417 221.541,268.249 204.732,267.332    207.177,265.803 207.177,262.136 190.062,260.608 190.367,266.109 188.228,266.415 187.922,270.999 186.088,271.305    184.866,299.728 182.727,304.616 179.06,307.673 177.837,311.953 176.003,317.148 164.695,317.758 138.106,317.148  "
             id="polyline16110" />
          <polyline
             transform="matrix(0.06505482,0,0,0.06505482,65.730532,159.51838)"
             style="fill:none;stroke:#000000;stroke-width:0.35280001"
             points="138.175,314.943 139.253,285.474 137.097,285.114    137.456,275.591 138.714,273.974 174.831,274.872 175.909,276.669 185.433,276.489  "
             id="polyline16112" />
          <polyline
             transform="matrix(0.06505482,0,0,0.06505482,65.730532,159.51838)"
             style="fill:none;stroke:#000000;stroke-width:0.35280001"
             points="140.691,273.974 141.05,248.278 137.995,248.278    136.198,246.481 134.401,248.099 132.604,246.302 131.167,247.38 129.55,249.716 127.034,247.2 125.237,245.583 122.542,247.739    118.949,247.56 116.433,248.638 111.042,249.177 108.707,251.513 106.55,254.567 104.214,254.747 101.519,253.31 100.261,250.794    97.565,248.817 91.457,248.638  "
             id="polyline16114" />
          <line
             style="fill:none;stroke:#000000;stroke-width:0.02295134"
             x1="74.953285"
             y1="173.42567"
             x2="74.871452"
             y2="175.59993"
             id="line16116" />
          <polyline
             transform="matrix(0.06505482,0,0,0.06505482,65.730532,159.51838)"
             style="fill:none;stroke:#000000;stroke-width:0.35280001"
             points="141.229,242.528 191.183,243.427 187.23,254.927    191.003,255.646 191.003,260.497  "
             id="polyline16118" />
          <line
             style="fill:none;stroke:#000000;stroke-width:0.02295134"
             x1="77.723709"
             y1="173.49586"
             x2="77.653519"
             y2="175.35448"
             id="line16120" />
          <polyline
             transform="matrix(0.06505482,0,0,0.06505482,65.730532,159.51838)"
             style="fill:none;stroke:#000000;stroke-width:0.35280001"
             points="221.37,268.224 228.378,267.505 228.917,256.544    259.823,256.364 260.183,259.958 297.377,258.88 296.838,263.911 295.761,267.146 296.479,275.771 297.559,280.083    297.918,283.677 295.223,287.271 295.401,292.303 296.3,297.153 299.174,301.468 300.971,305.601 301.87,308.293 320.559,307.934    321.097,309.191 337.448,308.653 337.448,290.146 330.44,280.622 320.916,280.263 320.737,261.575 318.223,261.755    317.863,249.356 320.199,248.458 318.94,231.208 308.338,230.669 307.44,210.724  "
             id="polyline16122" />
          <line
             style="fill:none;stroke:#000000;stroke-width:0.02295134"
             x1="81.288979"
             y1="174.31413"
             x2="81.242264"
             y2="176.20781"
             id="line16124" />
          <polyline
             transform="matrix(0.06505482,0,0,0.06505482,65.730532,159.51838)"
             style="fill:none;stroke:#000000;stroke-width:0.35280001"
             points="298.275,220.606 299.534,252.95 297.737,253.669    297.377,259.419  "
             id="polyline16126" />
          <polyline
             transform="matrix(0.06505482,0,0,0.06505482,65.730532,159.51838)"
             style="fill:none;stroke:#000000;stroke-width:0.35280001"
             points="275.456,259.778 275.276,277.208 273.659,277.927    273.839,290.146 276.175,290.866 277.253,296.436 280.308,300.747 280.667,307.395 280.487,327.342 274.019,328.419    271.862,326.982 271.144,324.286 261.44,324.825 261.261,321.23 258.925,323.388 257.667,321.95 258.026,313.685 227.12,312.247     "
             id="polyline16128" />
          <polyline
             transform="matrix(0.06505482,0,0,0.06505482,65.730532,159.51838)"
             style="fill:none;stroke:#000000;stroke-width:0.35280001"
             points="273.659,290.146 243.652,290.146 238.261,302.185    238.261,312.607  "
             id="polyline16130" />
          <polyline
             transform="matrix(0.06505482,0,0,0.06505482,65.730532,159.51838)"
             style="fill:none;stroke:#000000;stroke-width:0.35280001"
             points="261.44,324.646 262.699,350.343 274.198,350.343    275.636,348.363 294.863,348.004 295.223,354.115 298.996,353.934 299.713,355.553 305.104,355.371 305.283,350.161    299.355,350.161 299.174,317.458 308.52,317.098 302.23,308.653  "
             id="polyline16132" />
          <line
             style="fill:none;stroke:#000000;stroke-width:0.02295134"
             x1="84.000984"
             y1="180.14714"
             x2="85.205017"
             y2="180.18233"
             id="line16134" />
          <line
             style="fill:none;stroke:#000000;stroke-width:0.02295134"
             x1="71.153954"
             y1="179.93227"
             x2="70.988197"
             y2="184.07607"
             id="line16136" />
          <line
             style="fill:none;stroke:#000000;stroke-width:0.02295134"
             x1="75.695564"
             y1="180.23067"
             x2="75.496628"
             y2="184.24188"
             id="line16138" />
          <line
             style="fill:none;stroke:#000000;stroke-width:0.02295134"
             x1="79.043739"
             y1="180.69484"
             x2="78.877983"
             y2="184.37447"
             id="line16140" />
          <line
             style="fill:none;stroke:#000000;stroke-width:0.02295134"
             x1="83.51899"
             y1="182.28587"
             x2="83.55217"
             y2="184.4738"
             id="line16142" />
          <polyline
             transform="matrix(0.06505482,0,0,0.06505482,65.730532,159.51838)"
             style="fill:none;stroke:#000000;stroke-width:0.35280001"
             points="374.658,90.07 445.867,132.858 529.914,120.938    525.94,88.237 564.755,82.43 568.117,83.347 570.866,80.596 575.45,79.374 578.812,77.234 582.786,76.318 585.536,70.511    595.928,69.899  "
             id="polyline16144" />
          <polyline
             transform="matrix(0.06505482,0,0,0.06505482,65.730532,159.51838)"
             style="fill:none;stroke:#000000;stroke-width:0.35280001"
             points="473.984,17.944 474.29,21.917 481.626,22.834    492.627,117.577 491.1,118.494 492.321,125.829  "
             id="polyline16146" />
          <polyline
             transform="matrix(0.06505482,0,0,0.06505482,65.730532,159.51838)"
             style="fill:none;stroke:#000000;stroke-width:0.17640001"
             points="534.804,17.027 538.775,49.729 540.916,51.257    543.056,66.844 546.111,84.569  "
             id="polyline16148" />
          <polyline
             transform="matrix(0.06505482,0,0,0.06505482,65.730532,159.51838)"
             style="fill:none;stroke:#000000;stroke-width:0.35280001"
             points="463.595,131.024 471.234,203.151 463.595,219.96    493.546,233.713 511.883,231.574 512.187,234.63 521.051,234.324 522.272,230.657 529.608,230.657 521.663,171.672    594.094,160.669  "
             id="polyline16150" />
          <polyline
             transform="matrix(0.06505482,0,0,0.06505482,65.730532,159.51838)"
             style="fill:none;stroke:#000000;stroke-width:0.35280001"
             points="514.633,123.995 516.467,142.026 510.049,147.528    521.356,160.669 526.246,158.836 529.608,161.586 534.191,161.586 536.332,163.114 535.11,168.921  "
             id="polyline16152" />
          <polyline
             transform="matrix(0.06505482,0,0,0.06505482,65.730532,159.51838)"
             style="fill:none;stroke:#000000;stroke-width:0.35280001"
             points="411.639,112.687 403.387,126.745 407.971,130.719    406.137,138.054 402.469,138.359 402.774,143.555 396.967,144.166 383.521,154.251 376.492,154.251 375.88,164.643 381.688,165.56    384.131,204.068 404.303,211.097 440.978,187.564 436.088,128.273  "
             id="polyline16154" />
          <polyline
             transform="matrix(0.06505482,0,0,0.06505482,65.730532,159.51838)"
             style="fill:none;stroke:#000000;stroke-width:0.35280001"
             points="589.816,161.586 587.676,164.031 587.982,170.449    584.926,179.312 579.73,186.036 578.506,189.398 575.45,190.62 575.45,194.593 573.007,197.344 578.202,222.405 577.284,225.156    578.202,228.518 577.59,230.962 579.424,233.408 578.812,236.463 579.118,239.52 579.118,243.493 580.036,247.16 580.036,252.662    578.202,258.468 576.062,263.053 575.756,266.109 587.982,267.026 590.731,266.72 593.484,264.581 595.928,264.581    598.374,265.803 607.235,266.109  "
             id="polyline16156" />
          <polyline
             transform="matrix(0.06505482,0,0,0.06505482,65.730532,159.51838)"
             style="fill:none;stroke:#000000;stroke-width:0.35280001"
             points="440.978,187.87 444.951,221.794 441.59,223.627    438.534,224.239 437.922,229.74 443.424,233.408 445.561,233.102 443.727,238.297 432.42,255.718 433.338,276.194 433.032,280.167    439.756,279.251 443.727,273.75 460.536,283.53 463.289,274.972 476.124,279.251 484.682,283.224 490.184,282.918 500.879,289.641    516.16,288.113 535.11,272.833 533.582,262.442 493.239,262.747 474.596,256.329 472.149,250.522 475.512,246.244 478.567,240.743    477.652,226.378  "
             id="polyline16158" />
          <line
             style="fill:none;stroke:#000000;stroke-width:0.02295134"
             x1="96.664879"
             y1="176.25348"
             x2="96.585381"
             y2="177.56569"
             id="line16160" />
          <polyline
             transform="matrix(0.06505482,0,0,0.06505482,65.730532,159.51838)"
             style="fill:none;stroke:#000000;stroke-width:0.35280001"
             points="529.302,231.574 532.97,262.442 534.804,267.026    537.859,266.109 545.499,271.916 547.333,273.138 550.695,271.305 551.308,278.945 558.947,287.501 526.855,294.531    525.328,296.671 518.604,296.365 516.467,293.921 516.467,291.169 519.522,290.866 520.438,285.364  "
             id="polyline16162" />
          <polyline
             transform="matrix(0.06505482,0,0,0.06505482,65.730532,159.51838)"
             style="fill:none;stroke:#000000;stroke-width:0.35280001"
             points="527.468,215.07 551.613,211.403 553.751,218.126    557.419,222.711 556.197,228.212 556.81,229.74 560.475,229.74 562.309,231.879 564.143,230.962 564.755,228.212 567.505,225.767    569.645,225.767 571.479,227.295 572.088,223.933 575.146,222.405 577.284,222.405  "
             id="polyline16164" />
          <polyline
             transform="matrix(0.06505482,0,0,0.06505482,65.730532,159.51838)"
             style="fill:none;stroke:#000000;stroke-width:0.35280001"
             points="559.253,287.501 562.309,285.67 565.364,283.836    567.811,282.613 568.727,285.67 571.173,287.501 573.007,284.751 573.007,280.473 572.395,275.583 571.785,272.833    573.922,268.249 576.062,266.109  "
             id="polyline16166" />
          <polyline
             transform="matrix(0.06505482,0,0,0.06505482,65.730532,159.51838)"
             style="fill:none;stroke:#000000;stroke-width:0.35280001"
             points="345.288,178.418 359.558,180.457 360.575,175.7    381.977,177.739  "
             id="polyline16168" />
          <polyline
             transform="matrix(0.06505482,0,0,0.06505482,65.730532,159.51838)"
             style="fill:none;stroke:#000000;stroke-width:0.35280001"
             points="319.811,234.471 334.077,234.471 337.476,237.529    338.494,232.773 342.229,236.85 343.93,233.792 342.57,229.376 344.608,229.376 348.007,232.433 352.083,233.792 355.479,237.529    361.596,239.907 366.69,240.926 370.766,242.964 374.505,243.983 377.22,242.625 382.317,240.926 385.035,242.625 389.111,244.323    394.209,250.099 394.886,252.137 397.944,253.835 398.625,258.251 402.361,258.591 403.379,270.142 411.871,270.821    412.892,278.635 429.877,278.295 432.596,275.917  "
             id="polyline16170" />
          <polyline
             transform="matrix(0.06505482,0,0,0.06505482,65.730532,159.51838)"
             style="fill:none;stroke:#000000;stroke-width:0.35280001"
             points="384.016,204.237 379.261,202.878 372.467,222.242    374.845,223.601 372.804,242.285  "
             id="polyline16172" />
          <polyline
             transform="matrix(0.06505482,0,0,0.06505482,65.730532,159.51838)"
             style="fill:none;stroke:#000000;stroke-width:0.35280001"
             points="364.175,240.447 364.431,244.775 366.213,246.304    364.431,248.34 364.175,250.378 365.703,251.396 369.521,251.396 371.305,288.062 375.888,352.74 377.161,355.033 394.478,354.014    395.75,360.89 415.357,360.89 415.613,346.629 417.393,341.79 416.12,339.5 417.903,334.916 418.413,330.843 416.375,325.494    417.648,320.91 419.941,316.837 422.487,316.074 423.249,312.509 421.722,311.998 421.722,310.218 423.249,308.18 422.487,301.051    425.543,297.74 426.561,292.901 429.616,287.3 430.126,278.133  "
             id="polyline16174" />
          <polyline
             transform="matrix(0.06505482,0,0,0.06505482,65.730532,159.51838)"
             style="fill:none;stroke:#000000;stroke-width:0.35280001"
             points="305.609,349.939 317.832,349.939 319.104,352.23    323.943,352.23 324.454,345.866 329.544,345.611 330.817,347.14 335.401,346.884 335.911,348.922 339.222,348.667 338.967,344.083    340.495,342.045 339.729,340.263 337.184,338.989 335.401,338.482 335.148,335.171 338.712,334.661 373.087,333.898    374.615,334.153  "
             id="polyline16176" />
          <line
             style="fill:none;stroke:#000000;stroke-width:0.02295134"
             x1="89.869057"
             y1="178.25821"
             x2="87.732201"
             y2="178.3576"
             id="line16178" />
          <polyline
             transform="matrix(0.06505482,0,0,0.06505482,65.730532,159.51838)"
             style="fill:none;stroke:#000000;stroke-width:0.35280001"
             points="312.486,350.195 312.993,365.471 310.703,365.981    310.703,370.564 311.465,373.365 312.741,376.166 312.486,379.222 310.703,381.768 310.192,384.57  "
             id="polyline16180" />
          <line
             style="fill:none;stroke:#000000;stroke-width:0.02295134"
             x1="87.69915"
             y1="179.63313"
             x2="87.781967"
             y2="181.24005"
             id="line16182" />
          <polyline
             transform="matrix(0.06505482,0,0,0.06505482,65.730532,159.51838)"
             style="fill:none;stroke:#000000;stroke-width:0.35280001"
             points="349.917,335.171 350.68,339.755 351.697,344.846    352.463,348.157 354.501,351.213 353.735,353.506 355.263,357.579 353.991,362.163 351.445,361.907 351.953,384.061  "
             id="polyline16184" />
          <polyline
             transform="matrix(0.06505482,0,0,0.06505482,65.730532,159.51838)"
             style="fill:none;stroke:#000000;stroke-width:0.35280001"
             points="372.07,296.212 412.81,293.156 413.83,294.429    425.543,293.921  "
             id="polyline16186" />
          <polyline
             transform="matrix(0.06505482,0,0,0.06505482,65.730532,159.51838)"
             style="fill:none;stroke:#000000;stroke-width:0.35280001"
             points="416.083,345.614 425.013,345.379 429.242,339.506    433.236,339.271 435.351,337.858 435.821,339.974 438.874,338.094 442.165,336.92 443.339,333.629 446.159,331.985    451.094,331.985 452.032,329.635 454.617,329.635 455.794,326.111 459.553,326.111 465.896,321.88 470.126,321.647 470.361,322.82    474.355,322.586 476.002,320.706 478.82,320.706 487.984,332.456 504.669,340.914 506.783,338.564 510.777,338.8 513.128,340.914    519.001,339.035 521.351,334.57 519.707,331.985 522.057,325.642 522.995,317.418 521.351,316.241 522.057,312.953    527.462,302.378 527.93,294.154  "
             id="polyline16188" />
          <polyline
             transform="matrix(0.06505482,0,0,0.06505482,65.730532,159.51838)"
             style="fill:none;stroke:#000000;stroke-width:0.35280001"
             points="483.755,282.875 483.049,286.869 482.581,290.63    482.581,294.154 485.635,304.728 485.869,308.019 478.82,320.471  "
             id="polyline16190" />
          <line
             style="fill:none;stroke:#000000;stroke-width:0.02295134"
             x1="99.662216"
             y1="181.2532"
             x2="104.87486"
             y2="180.29019"
             id="line16192" />
          <polyline
             transform="matrix(0.06505482,0,0,0.06505482,65.730532,159.51838)"
             style="fill:none;stroke:#000000;stroke-width:0.35280001"
             points="563.882,325.642 563.411,321.88 565.762,317.65    565.526,308.019 566.938,302.142 569.755,295.798 572.341,288.045  "
             id="polyline16194" />
          <polyline
             transform="matrix(0.06505482,0,0,0.06505482,65.730532,159.51838)"
             style="fill:none;stroke:#000000;stroke-width:0.35280001"
             points="504.904,341.149 495.27,359.479 515.478,370.287    538.035,371.226 540.386,362.767 542.971,363.473 544.615,361.593 552.603,366.996 553.073,363.708 557.773,359.479    558.479,354.072 563.646,350.314 563.882,340.914 562.473,340.443 562.473,334.806 563.882,326.111  "
             id="polyline16196" />
          <polyline
             transform="matrix(0.06505482,0,0,0.06505482,65.730532,159.51838)"
             style="fill:none;stroke:#000000;stroke-width:0.0762"
             points="414.59,361.525 414.59,379.53 416.968,384.287  "
             id="polyline16198" />
          <polyline
             transform="matrix(0.06505482,0,0,0.06505482,65.730532,159.51838)"
             style="fill:none;stroke:#000000;stroke-width:0.35280001"
             points="441.769,402.293 494.425,369.34 495.442,366.281    498.501,366.962 502.577,363.223  "
             id="polyline16200" />
          <polyline
             transform="matrix(0.06505482,0,0,0.06505482,65.730532,159.51838)"
             style="fill:none;stroke:#000000;stroke-width:0.35280001"
             points="473.023,382.589 502.917,399.574 493.063,415.202    509.712,428.111 511.41,433.545 514.806,433.205 520.242,428.788 522.28,428.788 523.298,432.188 533.151,434.565 533.151,431.507    540.286,432.188 540.626,435.583 543.683,435.583 546.4,434.226 548.779,434.226 551.157,429.469 550.477,422.334 550.477,415.879    551.497,413.164 550.817,411.463 551.497,397.877 547.759,395.158 550.817,380.548 550.137,378.173 552.175,373.416    552.515,366.622  "
             id="polyline16202" />
          <polyline
             transform="matrix(0.06505482,0,0,0.06505482,65.730532,159.51838)"
             style="fill:none;stroke:#000000;stroke-width:0.35280001"
             points="552.175,374.774 571.201,382.589 587.166,383.947    588.187,377.152 590.904,376.132  "
             id="polyline16204" />
          <polyline
             transform="matrix(0.06505482,0,0,0.06505482,65.730532,159.51838)"
             style="fill:none;stroke:#000000;stroke-width:0.35280001"
             points="549.797,434.226 547.081,438.981 545.38,449.853    547.759,452.568 551.497,457.324 548.099,467.178 588.187,460.383  "
             id="polyline16206" />
          <polyline
             transform="matrix(0.06505482,0,0,0.06505482,65.730532,159.51838)"
             style="fill:none;stroke:#000000;stroke-width:0.35280001"
             points="476.419,454.269 475.398,451.551 477.439,449.513    474.721,447.134 501.896,444.756 505.636,437.621 511.75,433.885  "
             id="polyline16208" />
          <polyline
             transform="matrix(0.06505482,0,0,0.06505482,65.730532,159.51838)"
             style="fill:none;stroke:#000000;stroke-width:0.35280001"
             points="547.759,451.551 552.175,446.113 588.863,439.999  "
             id="polyline16210" />
          <polyline
             transform="matrix(0.06505482,0,0,0.06505482,65.730532,159.51838)"
             style="fill:none;stroke:#000000;stroke-width:0.35280001"
             points="525.677,487.899 547.081,467.178 551.157,470.233    548.779,474.312 556.591,487.222 556.932,506.926  "
             id="polyline16212" />
          <polyline
             transform="matrix(0.06505482,0,0,0.06505482,65.730532,159.51838)"
             style="fill:none;stroke:#000000;stroke-width:0.35280001"
             points="555.658,515.452 558.717,517.742 562.025,517.49    563.553,519.271 567.629,519.525  "
             id="polyline16214" />
          <polyline
             transform="matrix(0.06505482,0,0,0.06505482,65.730532,159.51838)"
             style="fill:none;stroke:#000000;stroke-width:0.35280001"
             points="553.878,520.543 555.914,521.309 554.134,526.147    554.386,529.965 556.935,531.748 560.242,531.238 562.28,529.71 566.608,529.455 569.92,530.476 576.286,536.077 576.031,538.115    572.976,540.405 573.642,545.015 573.846,547.866 570.181,550.718 570.181,552.141 572.42,553.362 573.029,555.196  "
             id="polyline16216" />
          <polyline
             transform="matrix(0.06505482,0,0,0.06505482,65.730532,159.51838)"
             style="fill:none;stroke:#000000;stroke-width:0.35280001"
             points="555.925,531.572 551.852,536.462 551.852,539.312    550.834,541.755 548.187,543.793 547.37,545.219  "
             id="polyline16218" />
          <polyline
             transform="matrix(0.06505482,0,0,0.06505482,65.730532,159.51838)"
             style="fill:none;stroke:#000000;stroke-width:0.17640001"
             points="556.942,557.436 560.403,557.436 563.256,554.179    563.867,550.31 561.83,548.884 562.033,544.606 560.403,542.775 558.776,544.402 555.925,541.35 553.683,538.906 552.26,538.09     "
             id="polyline16220" />
          <polyline
             transform="matrix(0.06505482,0,0,0.06505482,65.730532,159.51838)"
             style="fill:none;stroke:#000000;stroke-width:0.35280001"
             points="594.819,514.673 596.653,516.504 596.857,520.985    599.301,524.038 602.762,544.606 602.356,550.919  "
             id="polyline16222" />
          <polyline
             transform="matrix(0.06505482,0,0,0.06505482,65.730532,159.51838)"
             style="fill:none;stroke:#000000;stroke-width:0.0762"
             points="529.044,569.452 532.505,568.84 536.374,567.009    541.874,565.991 546.353,564.565 550.834,563.953 554.295,562.73 558.368,565.583  "
             id="polyline16224" />
          <polyline
             transform="matrix(0.06505482,0,0,0.06505482,65.730532,159.51838)"
             style="fill:none;stroke:#000000;stroke-width:0.0762"
             points="545.131,564.77 545.131,560.899 549.204,558.861  "
             id="polyline16226" />
          <polygon
             transform="matrix(0.43405857,0,0,0.43405857,-158.09214,-58.987238)"
             style="fill:#ff0000"
             points="547.586,537.664 548.58,534.728 549.575,537.664 552.799,537.664 550.19,539.479 551.186,542.415 548.58,540.601 545.973,542.415 546.971,539.479 544.362,537.664 "
             id="polygon16332" />
          <text
             sodipodi:linespacing="125%"
             id="text16516"
             y="182.84178"
             x="82.599571"
             style="font-size:10.56164646px;font-style:normal;font-variant:normal;font-weight:500;font-stretch:normal;text-align:start;line-height:125%;letter-spacing:0px;word-spacing:0px;writing-mode:lr-tb;text-anchor:start;fill:#000000;fill-opacity:1;stroke:none;font-family:Intuitive;-inkscape-font-specification:Intuitive"
             xml:space="preserve"><tspan
               y="182.84178"
               x="82.599571"
               id="tspan16518"
               sodipodi:role="line">Feed</tspan></text>
        </g>
      </g>
    </g>
  </g>
</svg>
